<svg viewBox="0 0 400 300" xmlns="http://www.w3.org/2000/svg">
  <defs>
    <linearGradient id="customGrad" x1="0%" y1="0%" x2="100%" y2="100%">
      <stop offset="0%" style="stop-color:#fde047;stop-opacity:0.9" />
      <stop offset="100%" style="stop-color:#eab308;stop-opacity:0.9" />
    </linearGradient>
  </defs>

  <!-- Background -->
  <rect width="400" height="300" fill="#0a0a0a"/>

  <!-- Dashboard frame -->
  <rect x="30" y="25" width="340" height="250" rx="12" fill="#1a1a1a" stroke="#fde047" stroke-width="1.5" opacity="0.7"/>

  <!-- Header bar -->
  <rect x="30" y="25" width="340" height="40" rx="12" fill="#fde047" opacity="0.1"/>
  <circle cx="55" cy="45" r="8" fill="#fde047" opacity="0.4"/>
  <rect x="75" y="40" width="80" height="10" rx="4" fill="#fde047" opacity="0.3"/>
  <rect x="300" y="38" width="50" height="14" rx="4" fill="#fde047" opacity="0.2"/>

  <!-- Left sidebar -->
  <rect x="40" y="75" width="70" height="190" rx="8" fill="#0a0a0a" stroke="#fde047" stroke-width="1" opacity="0.5"/>
  <rect x="50" y="90" width="50" height="8" rx="3" fill="#fde047" opacity="0.5"/>
  <rect x="50" y="108" width="40" height="6" rx="2" fill="#fde047" opacity="0.2"/>
  <rect x="50" y="122" width="45" height="6" rx="2" fill="#fde047" opacity="0.2"/>
  <rect x="50" y="136" width="35" height="6" rx="2" fill="#fde047" opacity="0.2"/>
  <rect x="50" y="160" width="50" height="8" rx="3" fill="#fde047" opacity="0.4"/>
  <rect x="50" y="178" width="40" height="6" rx="2" fill="#fde047" opacity="0.2"/>
  <rect x="50" y="192" width="48" height="6" rx="2" fill="#fde047" opacity="0.2"/>

  <!-- Main content area - Chart -->
  <rect x="120" y="75" width="145" height="100" rx="8" fill="#0a0a0a" stroke="#fde047" stroke-width="1" opacity="0.6"/>
  <!-- Chart line -->
  <path d="M 135 150 L 160 130 L 185 140 L 210 110 L 235 120 L 250 95"
        stroke="url(#customGrad)" stroke-width="2.5" fill="none" opacity="0.8"/>
  <!-- Chart dots -->
  <circle cx="160" cy="130" r="4" fill="#fde047" opacity="0.7"/>
  <circle cx="210" cy="110" r="4" fill="#fde047" opacity="0.7"/>
  <circle cx="250" cy="95" r="4" fill="#fde047" opacity="0.7"/>
  <!-- Grid lines -->
  <g stroke="#fde047" stroke-width="0.5" opacity="0.15">
    <line x1="135" y1="100" x2="250" y2="100"/>
    <line x1="135" y1="125" x2="250" y2="125"/>
    <line x1="135" y1="150" x2="250" y2="150"/>
  </g>

  <!-- Right panel - Metrics -->
  <rect x="275" y="75" width="85" height="100" rx="8" fill="#0a0a0a" stroke="#fde047" stroke-width="1" opacity="0.6"/>
  <rect x="285" y="88" width="35" height="25" rx="4" fill="#fde047" opacity="0.15"/>
  <rect x="325" y="88" width="25" height="25" rx="4" fill="#fde047" opacity="0.1"/>
  <rect x="290" y="95" width="20" height="10" rx="2" fill="#fde047" opacity="0.5"/>
  <rect x="285" y="125" width="65" height="6" rx="2" fill="#fde047" opacity="0.3"/>
  <rect x="285" y="138" width="50" height="6" rx="2" fill="#fde047" opacity="0.2"/>
  <rect x="285" y="151" width="55" height="6" rx="2" fill="#fde047" opacity="0.25"/>

  <!-- Bottom cards row -->
  <g transform="translate(120, 185)">
    <rect width="70" height="70" rx="6" fill="#0a0a0a" stroke="#fde047" stroke-width="1" opacity="0.5"/>
    <circle cx="35" cy="28" r="15" fill="none" stroke="#fde047" stroke-width="2" opacity="0.4"/>
    <path d="M 35 18 L 35 28 L 42 28" stroke="#fde047" stroke-width="2" opacity="0.6"/>
    <rect x="15" y="50" width="40" height="5" rx="2" fill="#fde047" opacity="0.3"/>
  </g>

  <g transform="translate(200, 185)">
    <rect width="70" height="70" rx="6" fill="#0a0a0a" stroke="#fde047" stroke-width="1" opacity="0.5"/>
    <!-- Bar chart mini -->
    <rect x="15" y="40" width="10" height="15" rx="2" fill="#fde047" opacity="0.4"/>
    <rect x="30" y="30" width="10" height="25" rx="2" fill="#fde047" opacity="0.5"/>
    <rect x="45" y="35" width="10" height="20" rx="2" fill="#fde047" opacity="0.35"/>
    <rect x="15" y="58" width="40" height="5" rx="2" fill="#fde047" opacity="0.3"/>
  </g>

  <g transform="translate(280, 185)">
    <rect width="70" height="70" rx="6" fill="#0a0a0a" stroke="#fde047" stroke-width="1" opacity="0.5"/>
    <!-- Checkmarks -->
    <path d="M 20 25 L 25 30 L 35 18" stroke="#fde047" stroke-width="2" fill="none" opacity="0.5"/>
    <path d="M 20 40 L 25 45 L 35 33" stroke="#fde047" stroke-width="2" fill="none" opacity="0.4"/>
    <rect x="40" y="22" width="15" height="4" rx="1" fill="#fde047" opacity="0.3"/>
    <rect x="40" y="37" width="12" height="4" rx="1" fill="#fde047" opacity="0.25"/>
    <rect x="15" y="58" width="40" height="5" rx="2" fill="#fde047" opacity="0.3"/>
  </g>

  <!-- Pulse indicator -->
  <circle cx="330" cy="95" r="3" fill="#fde047">
    <animate attributeName="opacity" values="1;0.3;1" dur="2s" repeatCount="indefinite"/>
  </circle>
</svg>